<mxfile host="app.diagrams.net" agent="Mozilla/5.0 (Windows NT 10.0; Win64; x64) AppleWebKit/537.36 (KHTML, like Gecko) Chrome/134.0.0.0 Safari/537.36" version="26.1.0">
  <diagram name="Page-1" id="Tn-RiL6q-qV4KoxcpwEt">
    <mxGraphModel dx="3225" dy="2578" grid="1" gridSize="10" guides="1" tooltips="1" connect="1" arrows="1" fold="1" page="1" pageScale="1" pageWidth="850" pageHeight="1100" math="0" shadow="0">
      <root>
        <mxCell id="0" />
        <mxCell id="1" parent="0" />
        <mxCell id="G0qfb9xiS4IKs5Gqad3O-46" value="" style="edgeStyle=orthogonalEdgeStyle;rounded=0;orthogonalLoop=1;jettySize=auto;html=1;" edge="1" parent="1" source="G0qfb9xiS4IKs5Gqad3O-20" target="G0qfb9xiS4IKs5Gqad3O-14">
          <mxGeometry relative="1" as="geometry" />
        </mxCell>
        <mxCell id="G0qfb9xiS4IKs5Gqad3O-20" value="" style="ellipse;whiteSpace=wrap;html=1;aspect=fixed;fillColor=light-dark(#FFD01C,var(--ge-dark-color, #121212));" vertex="1" parent="1">
          <mxGeometry x="210" y="-760" width="100" height="100" as="geometry" />
        </mxCell>
        <mxCell id="G0qfb9xiS4IKs5Gqad3O-1" value="&lt;span style=&quot;font-size: 24px;&quot;&gt;E-Farming Crops Deals Use Case Diagram&lt;/span&gt;" style="rounded=0;whiteSpace=wrap;html=1;fillColor=#fff2cc;strokeColor=#d6b656;" vertex="1" parent="1">
          <mxGeometry x="190" y="-1050" width="440" height="70" as="geometry" />
        </mxCell>
        <mxCell id="G0qfb9xiS4IKs5Gqad3O-26" style="edgeStyle=orthogonalEdgeStyle;rounded=0;orthogonalLoop=1;jettySize=auto;html=1;exitX=0.5;exitY=0.5;exitDx=0;exitDy=0;exitPerimeter=0;" edge="1" parent="1" source="G0qfb9xiS4IKs5Gqad3O-2">
          <mxGeometry relative="1" as="geometry">
            <mxPoint x="95.22222222222217" y="-800" as="targetPoint" />
          </mxGeometry>
        </mxCell>
        <mxCell id="G0qfb9xiS4IKs5Gqad3O-45" value="" style="edgeStyle=orthogonalEdgeStyle;rounded=0;orthogonalLoop=1;jettySize=auto;html=1;" edge="1" parent="1" source="G0qfb9xiS4IKs5Gqad3O-2" target="G0qfb9xiS4IKs5Gqad3O-20">
          <mxGeometry relative="1" as="geometry" />
        </mxCell>
        <mxCell id="G0qfb9xiS4IKs5Gqad3O-58" value="" style="edgeStyle=orthogonalEdgeStyle;rounded=0;orthogonalLoop=1;jettySize=auto;html=1;" edge="1" parent="1" source="G0qfb9xiS4IKs5Gqad3O-2" target="G0qfb9xiS4IKs5Gqad3O-20">
          <mxGeometry relative="1" as="geometry" />
        </mxCell>
        <mxCell id="G0qfb9xiS4IKs5Gqad3O-60" style="edgeStyle=orthogonalEdgeStyle;rounded=0;orthogonalLoop=1;jettySize=auto;html=1;exitX=0.5;exitY=0.5;exitDx=0;exitDy=0;exitPerimeter=0;entryX=0;entryY=0.5;entryDx=0;entryDy=0;" edge="1" parent="1" source="G0qfb9xiS4IKs5Gqad3O-2" target="G0qfb9xiS4IKs5Gqad3O-15">
          <mxGeometry relative="1" as="geometry">
            <mxPoint x="170" y="-620" as="targetPoint" />
            <Array as="points">
              <mxPoint x="130" y="-780" />
              <mxPoint x="130" y="-660" />
              <mxPoint x="171" y="-660" />
              <mxPoint x="171" y="-640" />
              <mxPoint x="170" y="-640" />
              <mxPoint x="170" y="-625" />
            </Array>
          </mxGeometry>
        </mxCell>
        <mxCell id="G0qfb9xiS4IKs5Gqad3O-2" value="Actor" style="shape=umlActor;verticalLabelPosition=bottom;verticalAlign=top;html=1;outlineConnect=0;" vertex="1" parent="1">
          <mxGeometry x="75" y="-825" width="30" height="90" as="geometry" />
        </mxCell>
        <mxCell id="G0qfb9xiS4IKs5Gqad3O-7" value="&lt;font style=&quot;font-size: 18px;&quot;&gt;farmer&amp;nbsp;&lt;/font&gt;" style="text;html=1;align=center;verticalAlign=middle;resizable=0;points=[];autosize=1;strokeColor=none;fillColor=none;" vertex="1" parent="1">
          <mxGeometry x="55" y="-870" width="80" height="40" as="geometry" />
        </mxCell>
        <mxCell id="G0qfb9xiS4IKs5Gqad3O-10" value="&lt;font style=&quot;font-size: 24px;&quot;&gt;Signs up&lt;/font&gt;" style="text;html=1;align=center;verticalAlign=middle;whiteSpace=wrap;rounded=0;" vertex="1" parent="1">
          <mxGeometry x="220" y="-735" width="80" height="50" as="geometry" />
        </mxCell>
        <mxCell id="G0qfb9xiS4IKs5Gqad3O-11" value="&lt;font style=&quot;font-size: 24px;&quot;&gt;Post&amp;nbsp; Crops Details&amp;nbsp;&lt;/font&gt;" style="text;html=1;align=center;verticalAlign=middle;whiteSpace=wrap;rounded=0;fillColor=#66FF66;strokeColor=light-dark(#D6B656,#06FF6E);" vertex="1" parent="1">
          <mxGeometry x="420" y="-880" width="260" height="50" as="geometry" />
        </mxCell>
        <mxCell id="G0qfb9xiS4IKs5Gqad3O-14" value="&lt;font style=&quot;font-size: 24px;&quot;&gt;Manage Profile&lt;/font&gt;" style="text;html=1;align=center;verticalAlign=middle;whiteSpace=wrap;rounded=0;fillColor=#ADF3FF;strokeColor=light-dark(#D6B656,#06FF6E);" vertex="1" parent="1">
          <mxGeometry x="420" y="-720" width="260" height="50" as="geometry" />
        </mxCell>
        <mxCell id="G0qfb9xiS4IKs5Gqad3O-15" value="&lt;span style=&quot;font-size: 24px;&quot;&gt;Add Bank Details&lt;/span&gt;" style="text;html=1;align=center;verticalAlign=middle;whiteSpace=wrap;rounded=0;fillColor=#99FFFF;strokeColor=light-dark(#D6B656,#06FF6E);" vertex="1" parent="1">
          <mxGeometry x="420" y="-650" width="260" height="50" as="geometry" />
        </mxCell>
        <mxCell id="G0qfb9xiS4IKs5Gqad3O-16" value="&lt;font style=&quot;font-size: 24px;&quot;&gt;View Receipts&amp;nbsp;&lt;/font&gt;" style="text;html=1;align=center;verticalAlign=middle;whiteSpace=wrap;rounded=0;fillColor=#33FF33;strokeColor=light-dark(#D6B656,#06FF6E);" vertex="1" parent="1">
          <mxGeometry x="420" y="-800" width="260" height="50" as="geometry" />
        </mxCell>
        <mxCell id="G0qfb9xiS4IKs5Gqad3O-17" value="&lt;font style=&quot;font-size: 24px;&quot;&gt;Subscribe for Crops/ Cart&lt;/font&gt;" style="text;html=1;align=center;verticalAlign=middle;whiteSpace=wrap;rounded=0;fillColor=#6666FF;strokeColor=light-dark(#D6B656,#06FF6E);" vertex="1" parent="1">
          <mxGeometry x="420" y="-570" width="260" height="60" as="geometry" />
        </mxCell>
        <mxCell id="G0qfb9xiS4IKs5Gqad3O-18" value="&lt;font style=&quot;font-size: 24px;&quot;&gt;PurChase Crop&lt;/font&gt;" style="text;html=1;align=center;verticalAlign=middle;whiteSpace=wrap;rounded=0;fillColor=#6666FF;strokeColor=light-dark(#D6B656,#06FF6E);" vertex="1" parent="1">
          <mxGeometry x="425" y="-490" width="260" height="50" as="geometry" />
        </mxCell>
        <mxCell id="G0qfb9xiS4IKs5Gqad3O-19" value="&lt;font style=&quot;font-size: 24px;&quot;&gt;Generate Invoice&amp;nbsp;&lt;/font&gt;" style="text;html=1;align=center;verticalAlign=middle;whiteSpace=wrap;rounded=0;fillColor=#6666FF;strokeColor=light-dark(#D6B656,#06FF6E);" vertex="1" parent="1">
          <mxGeometry x="425" y="-410" width="260" height="50" as="geometry" />
        </mxCell>
        <mxCell id="G0qfb9xiS4IKs5Gqad3O-63" style="edgeStyle=orthogonalEdgeStyle;rounded=0;orthogonalLoop=1;jettySize=auto;html=1;exitX=0.5;exitY=0.5;exitDx=0;exitDy=0;exitPerimeter=0;" edge="1" parent="1" source="G0qfb9xiS4IKs5Gqad3O-21">
          <mxGeometry relative="1" as="geometry">
            <mxPoint x="410" y="-530" as="targetPoint" />
          </mxGeometry>
        </mxCell>
        <mxCell id="G0qfb9xiS4IKs5Gqad3O-64" style="edgeStyle=orthogonalEdgeStyle;rounded=0;orthogonalLoop=1;jettySize=auto;html=1;exitX=0.5;exitY=0.5;exitDx=0;exitDy=0;exitPerimeter=0;entryX=0;entryY=0.75;entryDx=0;entryDy=0;" edge="1" parent="1" source="G0qfb9xiS4IKs5Gqad3O-21" target="G0qfb9xiS4IKs5Gqad3O-18">
          <mxGeometry relative="1" as="geometry">
            <Array as="points">
              <mxPoint x="220" y="-540" />
              <mxPoint x="220" y="-452" />
            </Array>
          </mxGeometry>
        </mxCell>
        <mxCell id="G0qfb9xiS4IKs5Gqad3O-65" style="edgeStyle=orthogonalEdgeStyle;rounded=0;orthogonalLoop=1;jettySize=auto;html=1;exitX=0.5;exitY=0.5;exitDx=0;exitDy=0;exitPerimeter=0;entryX=0;entryY=0.75;entryDx=0;entryDy=0;" edge="1" parent="1" source="G0qfb9xiS4IKs5Gqad3O-21" target="G0qfb9xiS4IKs5Gqad3O-19">
          <mxGeometry relative="1" as="geometry" />
        </mxCell>
        <mxCell id="G0qfb9xiS4IKs5Gqad3O-71" style="edgeStyle=orthogonalEdgeStyle;rounded=0;orthogonalLoop=1;jettySize=auto;html=1;entryX=0;entryY=0.25;entryDx=0;entryDy=0;" edge="1" parent="1" source="G0qfb9xiS4IKs5Gqad3O-21" target="G0qfb9xiS4IKs5Gqad3O-15">
          <mxGeometry relative="1" as="geometry" />
        </mxCell>
        <mxCell id="G0qfb9xiS4IKs5Gqad3O-21" value="Actor" style="shape=umlActor;verticalLabelPosition=bottom;verticalAlign=top;html=1;outlineConnect=0;" vertex="1" parent="1">
          <mxGeometry x="70" y="-585" width="30" height="90" as="geometry" />
        </mxCell>
        <mxCell id="G0qfb9xiS4IKs5Gqad3O-22" value="&lt;font style=&quot;font-size: 18px;&quot;&gt;Dealer&lt;/font&gt;" style="text;html=1;align=center;verticalAlign=middle;resizable=0;points=[];autosize=1;strokeColor=none;fillColor=none;" vertex="1" parent="1">
          <mxGeometry x="55" y="-630" width="80" height="40" as="geometry" />
        </mxCell>
        <mxCell id="G0qfb9xiS4IKs5Gqad3O-23" value="&lt;font style=&quot;font-size: 24px;&quot;&gt;Notify Dealars for new crops Listings&lt;/font&gt;" style="text;html=1;align=center;verticalAlign=middle;whiteSpace=wrap;rounded=0;fillColor=#fff2cc;strokeColor=light-dark(#D6B656,#06FF6E);" vertex="1" parent="1">
          <mxGeometry x="425" y="-250" width="260" height="50" as="geometry" />
        </mxCell>
        <mxCell id="G0qfb9xiS4IKs5Gqad3O-24" value="&lt;font style=&quot;font-size: 24px;&quot;&gt;Handle Payments&lt;/font&gt;" style="text;html=1;align=center;verticalAlign=middle;whiteSpace=wrap;rounded=0;fillColor=#fff2cc;strokeColor=light-dark(#D6B656,#06FF6E);" vertex="1" parent="1">
          <mxGeometry x="417.5" y="-150" width="275" height="50" as="geometry" />
        </mxCell>
        <mxCell id="G0qfb9xiS4IKs5Gqad3O-25" value="&lt;font style=&quot;font-size: 24px;&quot;&gt;Generate Receipts and invoices&lt;/font&gt;" style="text;html=1;align=center;verticalAlign=middle;whiteSpace=wrap;rounded=0;fillColor=#fff2cc;strokeColor=light-dark(#D6B656,#06FF6E);" vertex="1" parent="1">
          <mxGeometry x="420" y="-330" width="260" height="50" as="geometry" />
        </mxCell>
        <mxCell id="G0qfb9xiS4IKs5Gqad3O-27" value="" style="rounded=0;whiteSpace=wrap;html=1;fillColor=light-dark(#9DE9FF,var(--ge-dark-color, #121212));" vertex="1" parent="1">
          <mxGeometry x="650" y="-1060" width="50" height="20" as="geometry" />
        </mxCell>
        <mxCell id="G0qfb9xiS4IKs5Gqad3O-38" value="Both - Farmer &amp;amp; Dealer" style="text;html=1;align=center;verticalAlign=middle;resizable=0;points=[];autosize=1;strokeColor=none;fillColor=none;" vertex="1" parent="1">
          <mxGeometry x="700" y="-1065" width="150" height="30" as="geometry" />
        </mxCell>
        <mxCell id="G0qfb9xiS4IKs5Gqad3O-39" value="" style="rounded=0;whiteSpace=wrap;html=1;fillColor=light-dark(#66FF66,var(--ge-dark-color, #121212));" vertex="1" parent="1">
          <mxGeometry x="650" y="-1035" width="50" height="20" as="geometry" />
        </mxCell>
        <mxCell id="G0qfb9xiS4IKs5Gqad3O-40" value="" style="rounded=0;whiteSpace=wrap;html=1;fillColor=light-dark(#6666FF,var(--ge-dark-color, #121212));" vertex="1" parent="1">
          <mxGeometry x="650" y="-1009" width="50" height="20" as="geometry" />
        </mxCell>
        <mxCell id="G0qfb9xiS4IKs5Gqad3O-41" value="" style="rounded=0;whiteSpace=wrap;html=1;fillColor=light-dark(#FFFF99,var(--ge-dark-color, #121212));" vertex="1" parent="1">
          <mxGeometry x="651" y="-984" width="50" height="20" as="geometry" />
        </mxCell>
        <mxCell id="G0qfb9xiS4IKs5Gqad3O-42" value="Farmer" style="text;html=1;align=center;verticalAlign=middle;resizable=0;points=[];autosize=1;strokeColor=none;fillColor=none;" vertex="1" parent="1">
          <mxGeometry x="710" y="-1040" width="60" height="30" as="geometry" />
        </mxCell>
        <mxCell id="G0qfb9xiS4IKs5Gqad3O-43" value="Dealer" style="text;html=1;align=center;verticalAlign=middle;resizable=0;points=[];autosize=1;strokeColor=none;fillColor=none;" vertex="1" parent="1">
          <mxGeometry x="710" y="-1015" width="60" height="30" as="geometry" />
        </mxCell>
        <mxCell id="G0qfb9xiS4IKs5Gqad3O-44" value="System / Admin" style="text;html=1;align=center;verticalAlign=middle;resizable=0;points=[];autosize=1;strokeColor=none;fillColor=none;" vertex="1" parent="1">
          <mxGeometry x="701" y="-989" width="110" height="30" as="geometry" />
        </mxCell>
        <mxCell id="G0qfb9xiS4IKs5Gqad3O-56" value="" style="endArrow=classic;html=1;rounded=0;" edge="1" parent="1">
          <mxGeometry width="50" height="50" relative="1" as="geometry">
            <mxPoint x="105" y="-777.5" as="sourcePoint" />
            <mxPoint x="410" y="-782.5" as="targetPoint" />
          </mxGeometry>
        </mxCell>
        <mxCell id="G0qfb9xiS4IKs5Gqad3O-57" value="" style="endArrow=classic;html=1;rounded=0;" edge="1" parent="1">
          <mxGeometry width="50" height="50" relative="1" as="geometry">
            <mxPoint x="105" y="-780" as="sourcePoint" />
            <mxPoint x="410" y="-850" as="targetPoint" />
          </mxGeometry>
        </mxCell>
        <mxCell id="G0qfb9xiS4IKs5Gqad3O-67" style="edgeStyle=orthogonalEdgeStyle;rounded=0;orthogonalLoop=1;jettySize=auto;html=1;exitX=0.5;exitY=0.5;exitDx=0;exitDy=0;exitPerimeter=0;" edge="1" parent="1" source="G0qfb9xiS4IKs5Gqad3O-61" target="G0qfb9xiS4IKs5Gqad3O-25">
          <mxGeometry relative="1" as="geometry" />
        </mxCell>
        <mxCell id="G0qfb9xiS4IKs5Gqad3O-68" style="edgeStyle=orthogonalEdgeStyle;rounded=0;orthogonalLoop=1;jettySize=auto;html=1;exitX=0.5;exitY=0.5;exitDx=0;exitDy=0;exitPerimeter=0;" edge="1" parent="1" source="G0qfb9xiS4IKs5Gqad3O-61">
          <mxGeometry relative="1" as="geometry">
            <mxPoint x="420" y="-220" as="targetPoint" />
          </mxGeometry>
        </mxCell>
        <mxCell id="G0qfb9xiS4IKs5Gqad3O-69" style="edgeStyle=orthogonalEdgeStyle;rounded=0;orthogonalLoop=1;jettySize=auto;html=1;exitX=0.5;exitY=0.5;exitDx=0;exitDy=0;exitPerimeter=0;entryX=0;entryY=0.75;entryDx=0;entryDy=0;" edge="1" parent="1" source="G0qfb9xiS4IKs5Gqad3O-61" target="G0qfb9xiS4IKs5Gqad3O-24">
          <mxGeometry relative="1" as="geometry" />
        </mxCell>
        <mxCell id="G0qfb9xiS4IKs5Gqad3O-61" value="Actor" style="shape=umlActor;verticalLabelPosition=bottom;verticalAlign=top;html=1;outlineConnect=0;" vertex="1" parent="1">
          <mxGeometry x="55" y="-300" width="60" height="80" as="geometry" />
        </mxCell>
        <mxCell id="G0qfb9xiS4IKs5Gqad3O-62" value="Sysetm Admin&amp;nbsp;" style="text;html=1;align=center;verticalAlign=middle;resizable=0;points=[];autosize=1;strokeColor=none;fillColor=none;" vertex="1" parent="1">
          <mxGeometry x="40" y="-352" width="100" height="30" as="geometry" />
        </mxCell>
      </root>
    </mxGraphModel>
  </diagram>
</mxfile>
